<svg height="50" viewBox="0 0 148 50" width="148" xmlns="http://www.w3.org/2000/svg"><g fill="currentColor" fill-rule="evenodd"><path d="m11.2023434 35.8848592 5.4117736-5.4598592h10.9945849l4.2159056 14.9309859zm-7.57383019-18.9380282 10.05562259 1.2908451v10.7556338c0 .1042253.011868.206338.0328114.3042253l-4.78766041 4.8295775zm10.05562259-1.5964789-9.01752825-1.1577465 9.01752825-9.09577461zm19.8124529-7.05492956-8.343151 8.52816896-8.6300754-1.1084507v-12.06126756zm-16.9732264 19.26549296v-8.9584507l8.0387735 1.0323944 2.238151 7.9260563zm23.6995471 0h-10.4703019l-2.4894717-8.8161972 8.3082453-8.4929577zm-5.926283 16.0929577-3.7356038-13.2288732h9.3107359zm9.1522642-15.0352112-5.7524529-21.40845073c-.1319434-.49084507-.5124151-.87464789-.999-1.00774648l-21.2226415-5.8028169c-.4265471-.11690141-.8831132-.02605634-1.233566.24507042-.0237359.01760563-.0439811.03802817-.0663208.05704225l-.0753962-.07535211-13.48684905 13.60563385.00139623.0014084c-.02932076.0295775-.05864151.0584507-.08586793.0908451-.30996226.3732394-.41118868.8802817-.26737736 1.3457746l6.40239623 20.7521127c.12077359.3894366.39932076.7084507.76722642.8774648l26.01239626 11.9471831c.1884905.0866197.388849.1288732.5878113.1288732.3336981 0 .6639056-.1190141.9263962-.3471831.1689434-.1457746.2946038-.3274648.3783774-.5260563l.0020943.0014084 7.8446981-18.612676c.0076793-.0098592.0167547-.0183099.0237359-.028169.2687736-.3542254.358132-.8140845.2429434-1.2443662z"/><path d="m66.6400019 20.4819718-2.3519434 6.5478874h4.7045849zm4.1621509 11.9788733-.9277924-2.5788733h-6.468717l-.9501321 2.5788733h-3.6643962l5.8355283-15.2190141h4.026717l5.8124905 15.2190141z"/><path d="m83.4226434 24.8627465c0-4.6774648 3.5059245-7.871831 8.0296981-7.871831 3.3244151 0 5.2470189 1.8253521 6.3102453 3.7190141l-2.7596415 1.3690141c-.6331887-1.2316902-1.9903208-2.2133803-3.5506038-2.2133803-2.7373019 0-4.7276226 2.1225352-4.7276226 4.9971831s1.9903207 4.9964789 4.7276226 4.9964789c1.560283 0 2.9174151-.9577465 3.5506038-2.2133803l2.7596415 1.3464788c-1.085566 1.893662-2.9858302 3.7422536-6.3102453 3.7422536-4.5237736 0-8.0296981-3.1943662-8.0296981-7.871831"/><path d="m121.851262 32.460493v-10.6556338l-4.252207 10.6556338h-1.40251l-4.252207-10.6556338v10.6556338h-3.212019v-15.2183099h4.501434l3.664396 9.1943662 3.663698-9.1943662h4.523774v15.2183099z"/><path d="m137.11837 32.460493v-15.2183099h10.676245v2.8514084h-7.464226v3.2176057h7.305754v2.8521127h-7.305754v3.4450704h7.464226v2.8521127z"/></g></svg>
